<?xml version="1.0" standalone="no"?><!DOCTYPE svg PUBLIC "-//W3C//DTD SVG 1.1//EN" "http://www.w3.org/Graphics/SVG/1.1/DTD/svg11.dtd"><svg t="1679210090906" class="icon" viewBox="0 0 1024 1024" version="1.1" xmlns="http://www.w3.org/2000/svg" p-id="1080" xmlns:xlink="http://www.w3.org/1999/xlink" width="200" height="200"><path d="M536 1016c-3.2 0-5.6-0.8-8.8-2.4l-310.4-193.6-174.4 144c-0.8 0.8-2.4 1.6-3.2 2.4h-0.8c-0.8 0-1.6 0.8-3.2 0.8h-4c-2.4 0-4-0.8-6.4-1.6-1.6-0.8-4-2.4-4.8-4-0.8-0.8-1.6-2.4-2.4-3.2 0-0.8-0.8-0.8-0.8-1.6s-0.8-1.6-0.8-2.4V200c0-4.8 2.4-8.8 5.6-12l184-160c4.8-4 12-4.8 17.6-2.4l303.2 155.2 216-154.4c5.6-4 13.6-4 19.2 0.8 0 0 12 10.4 31.2 25.6 6.4 5.6 8 16 2.4 22.4-5.6 7.2-16 8-22.4 2.4-8.8-7.2-16-13.6-21.6-18.4L537.6 212.8c-4.8 3.2-11.2 4-16.8 1.6L218.4 59.2 48 207.2v710.4l157.6-130.4c5.6-4 12.8-4.8 18.4-1.6l309.6 193.6 207.2-199.2c4.8-4.8 12.8-5.6 19.2-2.4l216 122.4V272c0-8.8 7.2-16 16-16s16 7.2 16 16v656c0 5.6-3.2 11.2-8 13.6-4.8 3.2-11.2 3.2-16 0l-229.6-130.4-207.2 200c-3.2 3.2-7.2 4.8-11.2 4.8z" fill="#27B1BD" p-id="1081"></path><path d="M218.4 384c-8.8 0-16-7.2-16-16V208c0-8.8 7.2-16 16-16s16 7.2 16 16v160c0 8.8-7.2 16-16 16zM216 707.2c-8.8 0-16-7.2-16-16V484.8c0-8.8 7.2-16 16-16s16 7.2 16 16v206.4c0 8.8-7.2 16-16 16zM520 491.2c-8.8 0-16-7.2-16-16V268.8c0-8.8 7.2-16 16-16s16 7.2 16 16v206.4c0 8.8-7.2 16-16 16zM520 803.2c-8.8 0-16-7.2-16-16V580.8c0-8.8 7.2-16 16-16s16 7.2 16 16v206.4c0 8.8-7.2 16-16 16zM768 387.2c-8.8 0-16-7.2-16-16V164.8c0-8.8 7.2-16 16-16s16 7.2 16 16v206.4c0 8.8-7.2 16-16 16zM768 699.2c-8.8 0-16-7.2-16-16V476.8c0-8.8 7.2-16 16-16s16 7.2 16 16v206.4c0 8.8-7.2 16-16 16z" fill="#27B1BD" p-id="1082"></path><path d="M520 552c-2.4 0-4 0-6.4-0.8l-312-128c-8-3.2-12-12.8-8.8-20.8 3.2-8 12.8-12 20.8-8.8l305.6 125.6 353.6-172.8c8-4 17.6-0.8 21.6 7.2s0.8 17.6-7.2 21.6l-360 176c-2.4 0-4.8 0.8-7.2 0.8z" fill="#27B1BD" p-id="1083"></path><path d="M888 48c-52.8 0-96 43.2-96 96s88 168 96 168 96-115.2 96-168-43.2-96-96-96z m4 168c-37.6 0-68-30.4-68-68s30.4-68 68-68 68 30.4 68 68-30.4 68-68 68z" fill="#d81e06" p-id="1084"></path></svg>