<?xml version="1.0" standalone="no"?><!DOCTYPE svg PUBLIC "-//W3C//DTD SVG 1.1//EN" "http://www.w3.org/Graphics/SVG/1.1/DTD/svg11.dtd"><svg t="1679210085319" class="icon" viewBox="0 0 1024 1024" version="1.1" xmlns="http://www.w3.org/2000/svg" p-id="920" xmlns:xlink="http://www.w3.org/1999/xlink" width="200" height="200"><path d="M35.72093 892.14214V290.530233h952.55814v601.611907a100.566326 100.566326 0 0 1-100.256744 100.256744H135.977674A100.566326 100.566326 0 0 1 35.72093 892.165953z" fill="#CFD8DC" p-id="921"></path><path d="M988.27907 190.273488v150.385117H35.72093V190.273488a100.566326 100.566326 0 0 1 100.256744-100.256744h752.044652A100.566326 100.566326 0 0 1 988.27907 190.273488z" fill="#F44336" p-id="922"></path><path d="M737.589581 190.273488m-75.204465 0a75.204465 75.204465 0 1 0 150.408931 0 75.204465 75.204465 0 1 0-150.408931 0Z" fill="#B71C1C" p-id="923"></path><path d="M286.386605 190.273488m-75.204465 0a75.204465 75.204465 0 1 0 150.40893 0 75.204465 75.204465 0 1 0-150.40893 0Z" fill="#B71C1C" p-id="924"></path><path d="M737.613395 14.788465a50.271256 50.271256 0 0 0-50.152186 50.128372V190.273488c0 27.576558 22.575628 50.128372 50.152186 50.128372a50.271256 50.271256 0 0 0 50.128372-50.128372V64.916837A50.271256 50.271256 0 0 0 737.613395 14.788465zM286.386605 14.788465a50.271256 50.271256 0 0 0-50.128372 50.128372V190.273488c0 27.576558 22.551814 50.128372 50.128372 50.128372a50.271256 50.271256 0 0 0 50.152186-50.128372V64.916837A50.271256 50.271256 0 0 0 286.386605 14.788465z" fill="#B0BEC5" p-id="925"></path><path d="M236.258233 466.015256h150.40893v150.40893H236.258233zM436.795535 466.015256h150.40893v150.40893h-150.40893zM637.332837 466.015256h150.40893v150.40893h-150.40893zM236.258233 666.552558h150.40893v150.40893H236.258233zM436.795535 666.552558h150.40893v150.40893h-150.40893z" fill="#B0BEC5" p-id="926"></path><path d="M637.332837 666.552558h150.40893v150.385116h-150.40893z" fill="#F44336" p-id="927"></path></svg>